<svg xml:space="preserve" style="enable-background:new 0 0 77 77;" viewBox="0 0 77 77" y="0px" x="0px" xmlns:xlink="http://www.w3.org/1999/xlink" xmlns="http://www.w3.org/2000/svg" id="Layer_1" version="1.1">
<style type="text/css">
	.st0{fill:#2B2E30;}
</style>
<g>
	<path d="M19.7,52.3c3.4,4.7,9.7,7.1,18.6,7.1s15.3-2.4,18.8-7.1c4.9-6.6,3-15.9,1.8-20.1c-2.9,0.5-5.6,0.7-8.1,0.7
		c-5.7,0-9.8-1.3-12.2-3.9c-2.5,2.6-6.6,3.9-12.2,3.9c-2.5,0-5.3-0.3-8.3-0.8C16.9,36.4,14.9,45.7,19.7,52.3z" class="st0"></path>
	<path d="M38.7,25.6c4.4,5.4,14.8,4.4,20.7,3.4c2.6-0.5,4.4-1,4.4-1s-7.8-1-14-5.9c-5.9-4.6-10.6-0.5-11.1,0
		c-0.5-0.5-5.2-4.6-11.1,0c-6.2,4.9-14,5.9-14,5.9s1.7,0.5,4.2,0.9C23.7,30,34.3,31,38.7,25.6L38.7,25.6z" class="st0"></path>
</g>
<path d="M38.5,6.6c8.5,0,16.5,3.3,22.6,9.3c6,6,9.3,14,9.3,22.6S67.1,55,61.1,61.1c-6,6-14,9.3-22.6,9.3
	S22,67.1,15.9,61.1c-6-6-9.3-14-9.3-22.6S9.9,22,15.9,15.9C22,9.9,30,6.6,38.5,6.6 M38.5,0C17.2,0,0,17.2,0,38.5S17.2,77,38.5,77
	S77,59.8,77,38.5S59.8,0,38.5,0L38.5,0z" class="st0"></path>
</svg>
